<svg width="21" height="24" viewBox="0 0 21 24" fill="none" xmlns="http://www.w3.org/2000/svg">
<path d="M17.5397 12.7629C17.5525 11.843 17.8153 10.941 18.3037 10.1409C18.792 9.34082 19.4902 8.66857 20.333 8.18674C19.7976 7.47567 19.0912 6.89049 18.27 6.47768C17.4487 6.06487 16.5353 5.83579 15.6022 5.80864C13.6117 5.61438 11.6821 6.91612 10.6678 6.91612C9.63384 6.91612 8.07216 5.82793 6.3905 5.8601C5.30275 5.89278 4.24265 6.18689 3.31349 6.71379C2.38434 7.24068 1.61781 7.98239 1.0886 8.86663C-1.20383 12.5571 0.506116 17.9809 2.70207 20.964C3.80076 22.4247 5.08481 24.0564 6.76495 23.9985C8.40908 23.9351 9.02313 23.0237 11.0077 23.0237C12.9739 23.0237 13.55 23.9985 15.2643 23.9617C17.0285 23.9351 18.14 22.4945 19.2002 21.0199C19.9896 19.9791 20.597 18.8288 21 17.6115C19.975 17.2084 19.1004 16.5337 18.485 15.6715C17.8697 14.8093 17.5409 13.7977 17.5397 12.7629Z" fill="white"/>
<path d="M14.3019 3.8472C15.2638 2.77347 15.7377 1.39338 15.623 0C14.1534 0.143523 12.7959 0.796614 11.8209 1.82914C11.3443 2.33356 10.9792 2.92039 10.7466 3.55608C10.514 4.19177 10.4184 4.86385 10.4653 5.53391C11.2003 5.54095 11.9275 5.3928 12.5921 5.10064C13.2567 4.80847 13.8413 4.3799 14.3019 3.8472Z" fill="white"/>
</svg>
