<svg width="517" height="56" viewBox="0 0 517 56" fill="none" xmlns="http://www.w3.org/2000/svg">
<rect width="173" height="56" rx="16" fill="#336554"/>
<path d="M33.5397 28.7631C33.5525 27.8432 33.8153 26.9412 34.3037 26.1411C34.792 25.341 35.4902 24.6688 36.333 24.1869C35.7976 23.4759 35.0912 22.8907 34.27 22.4779C33.4487 22.065 32.5353 21.836 31.6022 21.8088C29.6117 21.6146 27.6821 22.9163 26.6678 22.9163C25.6338 22.9163 24.0722 21.8281 22.3905 21.8603C21.3027 21.893 20.2427 22.1871 19.3135 22.714C18.3843 23.2409 17.6178 23.9826 17.0886 24.8668C14.7962 28.5573 16.5061 33.981 18.7021 36.9641C19.8008 38.4249 21.0848 40.0566 22.765 39.9987C24.4091 39.9353 25.0231 39.0239 27.0077 39.0239C28.9739 39.0239 29.55 39.9987 31.2643 39.9619C33.0285 39.9353 34.14 38.4947 35.2002 37.0201C35.9896 35.9793 36.597 34.8289 37 33.6117C35.975 33.2086 35.1004 32.5339 34.485 31.6717C33.8697 30.8095 33.5409 29.7979 33.5397 28.7631Z" fill="white"/>
<path d="M30.3019 19.8472C31.2639 18.7735 31.7378 17.3934 31.623 16C30.1534 16.1435 28.7959 16.7966 27.821 17.8291C27.3443 18.3336 26.9792 18.9204 26.7466 19.5561C26.514 20.1918 26.4184 20.8639 26.4653 21.5339C27.2003 21.5409 27.9276 21.3928 28.5921 21.1006C29.2567 20.8085 29.8413 20.3799 30.3019 19.8472Z" fill="white"/>
<path d="M55.7951 34.192C54.0778 34.192 52.6485 33.6267 51.5071 32.496C50.3765 31.3653 49.8111 29.9733 49.8111 28.32C49.8111 26.6667 50.3765 25.2747 51.5071 24.144C52.6378 23.0133 54.0565 22.448 55.7631 22.448C56.9578 22.448 58.0511 22.7787 59.0431 23.44C60.0458 24.0907 60.7391 24.944 61.1231 26H58.4671C58.1898 25.5947 57.8058 25.2747 57.3151 25.04C56.8351 24.8053 56.3178 24.688 55.7631 24.688C54.6965 24.688 53.8271 25.0347 53.1551 25.728C52.4831 26.4213 52.1471 27.2853 52.1471 28.32C52.1471 29.3547 52.4831 30.2187 53.1551 30.912C53.8271 31.6053 54.7071 31.952 55.7951 31.952C56.7018 31.952 57.4271 31.728 57.9711 31.28C58.5258 30.8213 58.8671 30.1867 58.9951 29.376H55.5231V27.2H61.3951C61.5231 28.3307 61.4645 29.3493 61.2191 30.256C60.9738 31.1627 60.5845 31.8987 60.0511 32.464C59.5178 33.0187 58.8885 33.4453 58.1631 33.744C57.4378 34.0427 56.6485 34.192 55.7951 34.192ZM66.8141 34.176C65.5875 34.176 64.5795 33.7813 63.7901 32.992C63.0115 32.2027 62.6221 31.2 62.6221 29.984C62.6221 28.7893 63.0168 27.7973 63.8061 27.008C64.6061 26.2187 65.6141 25.824 66.8301 25.824C68.0568 25.824 69.0755 26.2453 69.8861 27.088C70.6968 27.92 71.0701 29.0613 71.0061 30.512H64.7661C64.8088 31.0133 65.0168 31.4347 65.3901 31.776C65.7635 32.1067 66.2755 32.272 66.9261 32.272C67.3208 32.272 67.6675 32.1973 67.9661 32.048C68.2755 31.888 68.4941 31.6693 68.6221 31.392H70.9101C70.6755 32.2133 70.1848 32.8853 69.4381 33.408C68.6915 33.92 67.8168 34.176 66.8141 34.176ZM66.7661 27.6C66.2648 27.6 65.8435 27.7333 65.5021 28C65.1715 28.256 64.9528 28.6133 64.8461 29.072H68.6061C68.4888 28.5707 68.2541 28.2027 67.9021 27.968C67.5608 27.7227 67.1821 27.6 66.7661 27.6ZM76.303 34.096C75.407 34.096 74.671 33.8507 74.095 33.36C73.5297 32.8587 73.247 32.1387 73.247 31.2V27.92H71.631V26H73.247V23.776H75.439V26H77.695V27.92H75.439V30.768C75.439 31.2587 75.5457 31.6107 75.759 31.824C75.9723 32.0267 76.319 32.128 76.799 32.128C77.1403 32.128 77.439 32.08 77.695 31.984V33.92C77.311 34.0373 76.847 34.096 76.303 34.096ZM89.5558 32.976C88.7344 33.776 87.7424 34.176 86.5798 34.176C85.4171 34.176 84.4251 33.776 83.6038 32.976C82.7824 32.1653 82.3717 31.1733 82.3717 30C82.3717 28.8373 82.7824 27.8507 83.6038 27.04C84.4251 26.2293 85.4171 25.824 86.5798 25.824C87.7424 25.824 88.7344 26.2293 89.5558 27.04C90.3771 27.8507 90.7878 28.8373 90.7878 30C90.7878 31.1733 90.3771 32.1653 89.5558 32.976ZM86.5798 32.128C87.1451 32.128 87.6144 31.9307 87.9878 31.536C88.3718 31.1307 88.5638 30.6187 88.5638 30C88.5638 29.3813 88.3718 28.8747 87.9878 28.48C87.6144 28.0747 87.1451 27.872 86.5798 27.872C86.0038 27.872 85.5238 28.0747 85.1398 28.48C84.7664 28.8747 84.5798 29.3813 84.5798 30C84.5798 30.6187 84.7664 31.1307 85.1398 31.536C85.5238 31.9307 86.0038 32.128 86.5798 32.128ZM92.3685 34V26H94.5605V26.912C95.0512 26.1867 95.8138 25.824 96.8485 25.824C97.8085 25.824 98.5605 26.144 99.1045 26.784C99.6592 27.4133 99.9365 28.256 99.9365 29.312V34H97.7445V29.68C97.7445 29.0933 97.6218 28.64 97.3765 28.32C97.1312 27.9893 96.7845 27.824 96.3365 27.824C95.8032 27.824 95.3712 28.016 95.0405 28.4C94.7205 28.784 94.5605 29.3493 94.5605 30.096V34H92.3685ZM106.675 24.688C106.302 24.688 105.977 24.5547 105.699 24.288C105.422 24.0107 105.283 23.68 105.283 23.296C105.283 22.912 105.422 22.5867 105.699 22.32C105.977 22.0427 106.302 21.904 106.675 21.904C107.07 21.904 107.401 22.0427 107.667 22.32C107.945 22.5867 108.083 22.912 108.083 23.296C108.083 23.68 107.945 24.0107 107.667 24.288C107.401 24.5547 107.07 24.688 106.675 24.688ZM105.587 34V26H107.779V34H105.587ZM112.076 37.344H109.884V26H112.076V26.896C112.279 26.608 112.588 26.3573 113.004 26.144C113.42 25.9307 113.884 25.824 114.396 25.824C115.452 25.824 116.343 26.2347 117.068 27.056C117.793 27.8773 118.156 28.8587 118.156 30C118.156 31.1413 117.793 32.1227 117.068 32.944C116.343 33.7653 115.452 34.176 114.396 34.176C113.884 34.176 113.42 34.0693 113.004 33.856C112.588 33.6427 112.279 33.392 112.076 33.104V37.344ZM112.444 31.568C112.817 31.9733 113.308 32.176 113.916 32.176C114.524 32.176 115.009 31.9733 115.372 31.568C115.745 31.1627 115.932 30.64 115.932 30C115.932 29.36 115.745 28.8373 115.372 28.432C115.009 28.0267 114.524 27.824 113.916 27.824C113.308 27.824 112.817 28.0267 112.444 28.432C112.081 28.8373 111.9 29.36 111.9 30C111.9 30.64 112.081 31.1627 112.444 31.568ZM121.951 34H119.759V22H121.951V26.912C122.442 26.1867 123.204 25.824 124.239 25.824C125.199 25.824 125.951 26.144 126.495 26.784C127.05 27.4133 127.327 28.256 127.327 29.312V34H125.135V29.68C125.135 29.0933 125.012 28.64 124.767 28.32C124.522 27.9893 124.175 27.824 123.727 27.824C123.194 27.824 122.762 28.016 122.431 28.4C122.111 28.784 121.951 29.3493 121.951 30.096V34ZM135.993 32.976C135.172 33.776 134.18 34.176 133.017 34.176C131.855 34.176 130.863 33.776 130.041 32.976C129.22 32.1653 128.809 31.1733 128.809 30C128.809 28.8373 129.22 27.8507 130.041 27.04C130.863 26.2293 131.855 25.824 133.017 25.824C134.18 25.824 135.172 26.2293 135.993 27.04C136.815 27.8507 137.225 28.8373 137.225 30C137.225 31.1733 136.815 32.1653 135.993 32.976ZM133.017 32.128C133.583 32.128 134.052 31.9307 134.425 31.536C134.809 31.1307 135.001 30.6187 135.001 30C135.001 29.3813 134.809 28.8747 134.425 28.48C134.052 28.0747 133.583 27.872 133.017 27.872C132.441 27.872 131.961 28.0747 131.577 28.48C131.204 28.8747 131.017 29.3813 131.017 30C131.017 30.6187 131.204 31.1307 131.577 31.536C131.961 31.9307 132.441 32.128 133.017 32.128ZM138.806 34V26H140.998V26.912C141.489 26.1867 142.251 25.824 143.286 25.824C144.246 25.824 144.998 26.144 145.542 26.784C146.097 27.4133 146.374 28.256 146.374 29.312V34H144.182V29.68C144.182 29.0933 144.059 28.64 143.814 28.32C143.569 27.9893 143.222 27.824 142.774 27.824C142.241 27.824 141.809 28.016 141.478 28.4C141.158 28.784 140.998 29.3493 140.998 30.096V34H138.806ZM152.064 34.176C150.837 34.176 149.829 33.7813 149.04 32.992C148.261 32.2027 147.872 31.2 147.872 29.984C147.872 28.7893 148.267 27.7973 149.056 27.008C149.856 26.2187 150.864 25.824 152.08 25.824C153.307 25.824 154.325 26.2453 155.136 27.088C155.947 27.92 156.32 29.0613 156.256 30.512H150.016C150.059 31.0133 150.267 31.4347 150.64 31.776C151.013 32.1067 151.525 32.272 152.176 32.272C152.571 32.272 152.917 32.1973 153.216 32.048C153.525 31.888 153.744 31.6693 153.872 31.392H156.16C155.925 32.2133 155.435 32.8853 154.688 33.408C153.941 33.92 153.067 34.176 152.064 34.176ZM152.016 27.6C151.515 27.6 151.093 27.7333 150.752 28C150.421 28.256 150.203 28.6133 150.096 29.072H153.856C153.739 28.5707 153.504 28.2027 153.152 27.968C152.811 27.7227 152.432 27.6 152.016 27.6Z" fill="white"/>
<rect x="197" width="181" height="56" rx="16" fill="#336554"/>
<path fill-rule="evenodd" clip-rule="evenodd" d="M213.415 16.3665C213.152 16.6574 213 17.1018 213 17.6835V38.3144C213 38.8961 213.152 39.3405 213.424 39.6197L213.495 39.6825L224.767 28.1234V27.8652L213.486 16.3037L213.415 16.3665Z" fill="url(#paint0_linear_3060_6264)"/>
<path fill-rule="evenodd" clip-rule="evenodd" d="M228.517 31.9889L224.757 28.1336V27.8637L228.517 24.0083L228.598 24.0595L233.045 26.6514C234.318 27.3867 234.318 28.6012 233.045 29.3458L228.598 31.9377L228.517 31.9889Z" fill="url(#paint1_linear_3060_6264)"/>
<path fill-rule="evenodd" clip-rule="evenodd" d="M228.599 31.9377L224.757 27.9985L213.415 39.6298C213.83 40.0858 214.527 40.137 215.305 39.6926L228.599 31.9377Z" fill="url(#paint2_linear_3060_6264)"/>
<path fill-rule="evenodd" clip-rule="evenodd" d="M228.599 24.0594L215.305 16.3161C214.527 15.8601 213.828 15.9229 213.415 16.379L224.757 27.9986L228.599 24.0594Z" fill="url(#paint3_linear_3060_6264)"/>
<path opacity="0.2" fill-rule="evenodd" clip-rule="evenodd" d="M228.517 31.854L215.314 39.5461C214.577 39.9812 213.919 39.9509 213.494 39.5554L213.424 39.6275L213.494 39.6903C213.919 40.0836 214.577 40.1161 215.314 39.681L228.608 31.9378L228.517 31.854Z" fill="white"/>
<path opacity="0.12" fill-rule="evenodd" clip-rule="evenodd" d="M233.045 29.2108L228.505 31.8539L228.587 31.9377L233.034 29.3457C233.671 28.9734 233.985 28.4848 233.985 27.9985C233.946 28.4453 233.622 28.8687 233.045 29.2108Z" fill="white"/>
<path opacity="0.25" fill-rule="evenodd" clip-rule="evenodd" d="M215.305 16.4512L233.046 26.7865C233.622 27.1192 233.947 27.5543 233.997 27.9987C233.997 27.5124 233.683 27.0238 233.046 26.6516L215.305 16.3163C214.032 15.5694 213 16.193 213 17.6844V17.8194C213 16.3256 214.032 15.7137 215.305 16.4512Z" fill="#232121"/>
<path d="M252.67 34.192C250.953 34.192 249.523 33.6267 248.382 32.496C247.251 31.3653 246.686 29.9733 246.686 28.32C246.686 26.6667 247.251 25.2747 248.382 24.144C249.513 23.0133 250.931 22.448 252.638 22.448C253.833 22.448 254.926 22.7787 255.918 23.44C256.921 24.0907 257.614 24.944 257.998 26H255.342C255.065 25.5947 254.681 25.2747 254.19 25.04C253.71 24.8053 253.193 24.688 252.638 24.688C251.571 24.688 250.702 25.0347 250.03 25.728C249.358 26.4213 249.022 27.2853 249.022 28.32C249.022 29.3547 249.358 30.2187 250.03 30.912C250.702 31.6053 251.582 31.952 252.67 31.952C253.577 31.952 254.302 31.728 254.846 31.28C255.401 30.8213 255.742 30.1867 255.87 29.376H252.398V27.2H258.27C258.398 28.3307 258.339 29.3493 258.094 30.256C257.849 31.1627 257.459 31.8987 256.926 32.464C256.393 33.0187 255.763 33.4453 255.038 33.744C254.313 34.0427 253.523 34.192 252.67 34.192ZM263.689 34.176C262.462 34.176 261.454 33.7813 260.665 32.992C259.886 32.2027 259.497 31.2 259.497 29.984C259.497 28.7893 259.892 27.7973 260.681 27.008C261.481 26.2187 262.489 25.824 263.705 25.824C264.932 25.824 265.95 26.2453 266.761 27.088C267.572 27.92 267.945 29.0613 267.881 30.512H261.641C261.684 31.0133 261.892 31.4347 262.265 31.776C262.638 32.1067 263.15 32.272 263.801 32.272C264.196 32.272 264.542 32.1973 264.841 32.048C265.15 31.888 265.369 31.6693 265.497 31.392H267.785C267.55 32.2133 267.06 32.8853 266.313 33.408C265.566 33.92 264.692 34.176 263.689 34.176ZM263.641 27.6C263.14 27.6 262.718 27.7333 262.377 28C262.046 28.256 261.828 28.6133 261.721 29.072H265.481C265.364 28.5707 265.129 28.2027 264.777 27.968C264.436 27.7227 264.057 27.6 263.641 27.6ZM273.178 34.096C272.282 34.096 271.546 33.8507 270.97 33.36C270.405 32.8587 270.122 32.1387 270.122 31.2V27.92H268.506V26H270.122V23.776H272.314V26H274.57V27.92H272.314V30.768C272.314 31.2587 272.421 31.6107 272.634 31.824C272.847 32.0267 273.194 32.128 273.674 32.128C274.015 32.128 274.314 32.08 274.57 31.984V33.92C274.186 34.0373 273.722 34.096 273.178 34.096ZM286.431 32.976C285.609 33.776 284.617 34.176 283.455 34.176C282.292 34.176 281.3 33.776 280.479 32.976C279.657 32.1653 279.247 31.1733 279.247 30C279.247 28.8373 279.657 27.8507 280.479 27.04C281.3 26.2293 282.292 25.824 283.455 25.824C284.617 25.824 285.609 26.2293 286.431 27.04C287.252 27.8507 287.663 28.8373 287.663 30C287.663 31.1733 287.252 32.1653 286.431 32.976ZM283.455 32.128C284.02 32.128 284.489 31.9307 284.863 31.536C285.247 31.1307 285.439 30.6187 285.439 30C285.439 29.3813 285.247 28.8747 284.863 28.48C284.489 28.0747 284.02 27.872 283.455 27.872C282.879 27.872 282.399 28.0747 282.015 28.48C281.641 28.8747 281.455 29.3813 281.455 30C281.455 30.6187 281.641 31.1307 282.015 31.536C282.399 31.9307 282.879 32.128 283.455 32.128ZM289.243 34V26H291.436V26.912C291.926 26.1867 292.689 25.824 293.724 25.824C294.684 25.824 295.436 26.144 295.98 26.784C296.534 27.4133 296.812 28.256 296.812 29.312V34H294.62V29.68C294.62 29.0933 294.497 28.64 294.252 28.32C294.006 27.9893 293.66 27.824 293.212 27.824C292.678 27.824 292.246 28.016 291.916 28.4C291.596 28.784 291.436 29.3493 291.436 30.096V34H289.243ZM300.922 34L305.818 22.64H307.882L312.794 34H310.362L309.258 31.408H304.41L303.322 34H300.922ZM306.842 25.696L305.274 29.376H308.394L306.842 25.696ZM313.853 34V26H316.045V26.912C316.536 26.1867 317.298 25.824 318.333 25.824C319.293 25.824 320.045 26.144 320.589 26.784C321.144 27.4133 321.421 28.256 321.421 29.312V34H319.229V29.68C319.229 29.0933 319.106 28.64 318.861 28.32C318.616 27.9893 318.269 27.824 317.821 27.824C317.288 27.824 316.856 28.016 316.525 28.4C316.205 28.784 316.045 29.3493 316.045 30.096V34H313.853ZM326.679 34.176C325.623 34.176 324.732 33.7653 324.007 32.944C323.282 32.1227 322.919 31.1413 322.919 30C322.919 28.8587 323.282 27.8773 324.007 27.056C324.732 26.2347 325.623 25.824 326.679 25.824C327.191 25.824 327.65 25.9307 328.055 26.144C328.46 26.3573 328.77 26.608 328.983 26.896V22H331.175V34H328.983V33.104C328.77 33.392 328.46 33.6427 328.055 33.856C327.65 34.0693 327.191 34.176 326.679 34.176ZM325.671 31.568C326.044 31.9733 326.535 32.176 327.143 32.176C327.751 32.176 328.236 31.9733 328.599 31.568C328.972 31.1627 329.159 30.64 329.159 30C329.159 29.36 328.972 28.8373 328.599 28.432C328.236 28.0267 327.751 27.824 327.143 27.824C326.535 27.824 326.044 28.0267 325.671 28.432C325.308 28.8373 325.127 29.36 325.127 30C325.127 30.64 325.308 31.1627 325.671 31.568ZM333.306 34V26H335.498V27.28C335.637 26.8853 335.887 26.56 336.25 26.304C336.623 26.0373 337.034 25.904 337.482 25.904C337.759 25.904 338.005 25.936 338.218 26V28.224C337.866 28.1067 337.535 28.048 337.226 28.048C336.703 28.048 336.282 28.24 335.962 28.624C335.653 28.9973 335.498 29.5147 335.498 30.176V34H333.306ZM345.993 32.976C345.172 33.776 344.18 34.176 343.017 34.176C341.855 34.176 340.863 33.776 340.041 32.976C339.22 32.1653 338.809 31.1733 338.809 30C338.809 28.8373 339.22 27.8507 340.041 27.04C340.863 26.2293 341.855 25.824 343.017 25.824C344.18 25.824 345.172 26.2293 345.993 27.04C346.815 27.8507 347.225 28.8373 347.225 30C347.225 31.1733 346.815 32.1653 345.993 32.976ZM343.017 32.128C343.583 32.128 344.052 31.9307 344.425 31.536C344.809 31.1307 345.001 30.6187 345.001 30C345.001 29.3813 344.809 28.8747 344.425 28.48C344.052 28.0747 343.583 27.872 343.017 27.872C342.441 27.872 341.961 28.0747 341.577 28.48C341.204 28.8747 341.017 29.3813 341.017 30C341.017 30.6187 341.204 31.1307 341.577 31.536C341.961 31.9307 342.441 32.128 343.017 32.128ZM349.894 24.688C349.521 24.688 349.195 24.5547 348.918 24.288C348.641 24.0107 348.502 23.68 348.502 23.296C348.502 22.912 348.641 22.5867 348.918 22.32C349.195 22.0427 349.521 21.904 349.894 21.904C350.289 21.904 350.619 22.0427 350.886 22.32C351.163 22.5867 351.302 22.912 351.302 23.296C351.302 23.68 351.163 24.0107 350.886 24.288C350.619 24.5547 350.289 24.688 349.894 24.688ZM348.806 34V26H350.998V34H348.806ZM356.351 34.176C355.295 34.176 354.404 33.7653 353.679 32.944C352.954 32.1227 352.591 31.1413 352.591 30C352.591 28.8587 352.954 27.8773 353.679 27.056C354.404 26.2347 355.295 25.824 356.351 25.824C356.863 25.824 357.322 25.9307 357.727 26.144C358.132 26.3573 358.442 26.608 358.655 26.896V22H360.847V34H358.655V33.104C358.442 33.392 358.132 33.6427 357.727 33.856C357.322 34.0693 356.863 34.176 356.351 34.176ZM355.343 31.568C355.716 31.9733 356.207 32.176 356.815 32.176C357.423 32.176 357.908 31.9733 358.271 31.568C358.644 31.1627 358.831 30.64 358.831 30C358.831 29.36 358.644 28.8373 358.271 28.432C357.908 28.0267 357.423 27.824 356.815 27.824C356.207 27.824 355.716 28.0267 355.343 28.432C354.98 28.8373 354.799 29.36 354.799 30C354.799 30.64 354.98 31.1627 355.343 31.568Z" fill="white"/>
<defs>
<linearGradient id="paint0_linear_3060_6264" x1="223.756" y1="17.4609" x2="205.641" y2="22.1676" gradientUnits="userSpaceOnUse">
<stop stop-color="#00A0FF"/>
<stop offset="0.00657" stop-color="#00A1FF"/>
<stop offset="0.2601" stop-color="#00BEFF"/>
<stop offset="0.5122" stop-color="#00D2FF"/>
<stop offset="0.7604" stop-color="#00DFFF"/>
<stop offset="1" stop-color="#00E3FF"/>
</linearGradient>
<linearGradient id="paint1_linear_3060_6264" x1="234.705" y1="27.9986" x2="212.69" y2="27.9986" gradientUnits="userSpaceOnUse">
<stop stop-color="#FFE000"/>
<stop offset="0.4087" stop-color="#FFBD00"/>
<stop offset="0.7754" stop-color="#FFA500"/>
<stop offset="1" stop-color="#FF9C00"/>
</linearGradient>
<linearGradient id="paint2_linear_3060_6264" x1="226.51" y1="30.142" x2="211.469" y2="54.8275" gradientUnits="userSpaceOnUse">
<stop stop-color="#FF3A44"/>
<stop offset="1" stop-color="#C31162"/>
</linearGradient>
<linearGradient id="paint3_linear_3060_6264" x1="210.559" y1="9.50514" x2="217.269" y2="20.5303" gradientUnits="userSpaceOnUse">
<stop stop-color="#32A071"/>
<stop offset="0.0685" stop-color="#2DA771"/>
<stop offset="0.4762" stop-color="#15CF74"/>
<stop offset="0.8009" stop-color="#06E775"/>
<stop offset="1" stop-color="#00F076"/>
</linearGradient>
</defs>
</svg>
