<svg width="21" height="24" viewBox="0 0 21 24" fill="none" xmlns="http://www.w3.org/2000/svg">
<path fill-rule="evenodd" clip-rule="evenodd" d="M0.415211 0.366624C0.152017 0.657463 0 1.10187 0 1.68354V22.3145C0 22.8962 0.152017 23.3406 0.424287 23.6198L0.494623 23.6826L11.7666 12.1235V11.8652L0.485548 0.303802L0.415211 0.366624Z" fill="url(#paint0_linear_3060_5894)"/>
<path fill-rule="evenodd" clip-rule="evenodd" d="M15.5166 15.9889L11.757 12.1336V11.8637L15.5166 8.0083L15.5983 8.05949L20.0454 10.6514C21.3182 11.3867 21.3182 12.6012 20.0454 13.3458L15.5983 15.9377L15.5166 15.9889Z" fill="url(#paint1_linear_3060_5894)"/>
<path fill-rule="evenodd" clip-rule="evenodd" d="M15.5985 15.9375L11.7572 11.9984L0.414917 23.6296C0.830129 24.0856 1.52669 24.1368 2.30492 23.6924L15.5985 15.9375Z" fill="url(#paint2_linear_3060_5894)"/>
<path fill-rule="evenodd" clip-rule="evenodd" d="M15.5986 8.05932L2.30499 0.316018C1.52675 -0.140018 0.827921 -0.0771965 0.414978 0.378839L11.7573 11.9984L15.5986 8.05932Z" fill="url(#paint3_linear_3060_5894)"/>
<path opacity="0.2" fill-rule="evenodd" clip-rule="evenodd" d="M15.5169 15.8539L2.31397 23.546C1.57657 23.9811 0.918577 23.9508 0.494287 23.5553L0.42395 23.6274L0.494287 23.6903C0.918577 24.0835 1.57657 24.116 2.31397 23.6809L15.6076 15.9377L15.5169 15.8539Z" fill="white"/>
<path opacity="0.12" fill-rule="evenodd" clip-rule="evenodd" d="M20.0452 13.2106L15.5051 15.8537L15.5868 15.9375L20.0339 13.3455C20.6714 12.9732 20.9846 12.4846 20.9846 11.9984C20.946 12.4451 20.6215 12.8685 20.0452 13.2106Z" fill="white"/>
<path opacity="0.25" fill-rule="evenodd" clip-rule="evenodd" d="M2.30522 0.451247L20.0459 10.7865C20.6222 11.1192 20.9466 11.5543 20.9965 11.9987C20.9965 11.5124 20.6834 11.0238 20.0459 10.6516L2.30522 0.316298C1.03236 -0.430577 0 0.192982 0 1.68441V1.81935C0 0.325605 1.03236 -0.286321 2.30522 0.451247Z" fill="#232121"/>
<defs>
<linearGradient id="paint0_linear_3060_5894" x1="10.7555" y1="1.46096" x2="-7.35915" y2="6.16773" gradientUnits="userSpaceOnUse">
<stop stop-color="#00A0FF"/>
<stop offset="0.00657" stop-color="#00A1FF"/>
<stop offset="0.2601" stop-color="#00BEFF"/>
<stop offset="0.5122" stop-color="#00D2FF"/>
<stop offset="0.7604" stop-color="#00DFFF"/>
<stop offset="1" stop-color="#00E3FF"/>
</linearGradient>
<linearGradient id="paint1_linear_3060_5894" x1="21.7053" y1="11.9986" x2="-0.309996" y2="11.9986" gradientUnits="userSpaceOnUse">
<stop stop-color="#FFE000"/>
<stop offset="0.4087" stop-color="#FFBD00"/>
<stop offset="0.7754" stop-color="#FFA500"/>
<stop offset="1" stop-color="#FF9C00"/>
</linearGradient>
<linearGradient id="paint2_linear_3060_5894" x1="13.5098" y1="14.1418" x2="-1.53072" y2="38.8274" gradientUnits="userSpaceOnUse">
<stop stop-color="#FF3A44"/>
<stop offset="1" stop-color="#C31162"/>
</linearGradient>
<linearGradient id="paint3_linear_3060_5894" x1="-2.44114" y1="-6.49498" x2="4.26916" y2="4.5302" gradientUnits="userSpaceOnUse">
<stop stop-color="#32A071"/>
<stop offset="0.0685" stop-color="#2DA771"/>
<stop offset="0.4762" stop-color="#15CF74"/>
<stop offset="0.8009" stop-color="#06E775"/>
<stop offset="1" stop-color="#00F076"/>
</linearGradient>
</defs>
</svg>
